<?xml version="1.0" encoding="UTF-8" standalone="no"?>
<!-- Created with Inkscape (http://www.inkscape.org/) -->
<svg
   xmlns:svg="http://www.w3.org/2000/svg"
   xmlns="http://www.w3.org/2000/svg"
   version="1.0"
   width="371.03314"
   height="374.3996"
   id="svg2">
  <defs
     id="defs4" />
  <g
     transform="translate(-290.70916,-76.175917)"
     id="layer1">
    <g
       transform="translate(102.02541,-65.659915)"
       id="g2396">
      <path
         d="M 357.84277,515.71539 C 305.40703,509.78485 254.52217,482.76295 224.48573,438.71644 C 195.31347,400.98512 185.58338,351.24228 189.51635,304.33995 C 195.02791,271.50852 206.34867,238.97817 227.70461,213.08234 C 260.03854,170.35007 311.57476,143.70555 365.20992,142.4041 C 389.98945,140.44112 415.07614,143.44466 437.93089,153.27608 C 470.32135,165.9238 501.34095,185.61072 521.05175,214.98757 C 545.44154,245.65251 558.54748,284.32795 559.7169,323.24316 C 559.61913,357.91443 553.27178,393.15267 534.89574,422.94285 C 524.06491,441.29432 512.24604,457.53284 495.3377,471.17535 C 465.27426,496.66115 427.77523,512.95609 388.22535,515.86472 C 378.10768,516.2709 367.94821,516.49571 357.84277,515.71539 z"
         id="path2400"
         style="fill:#f9f40a" />
      <path
         d="M 355.53476,515.22351 C 301.24948,509.12775 249.52711,478.9938 220.23843,432.46835 C 184.81065,381.37431 179.2912,311.23482 203.60487,254.18094 C 214.65783,226.03319 235.25396,201.1611 258.49886,181.3809 C 294.53544,153.54901 340.76966,138.0801 386.48327,142.62005 C 422.27799,143.50668 456.23441,158.68899 485.37907,178.61661 C 511.91159,197.98115 530.40606,225.27881 544.85272,254.14014 C 554.8609,280.5847 561.62136,308.99814 559.15324,337.59174 C 558.42426,390.04031 531.94051,440.61235 491.99308,473.95472 C 454.29176,504.85573 404.25328,520.94395 355.53476,515.22351 z M 402.53476,502.87604 C 448.04606,495.45439 490.32456,469.76007 517.09636,432.00409 C 528.69633,416.02265 536.93411,397.36101 542.97357,378.48804 C 555.73765,335.8047 550.89461,288.66944 531.42165,249.03676 C 514.43048,218.42439 490.03322,190.147 458.53477,173.85238 C 444.14654,165.331 426.13167,160.6243 409.69874,155.85238 C 378.04058,149.21925 344.03918,152.01244 313.53477,162.78766 C 240.36113,187.25191 190.66761,266.05908 199.02197,342.59282 C 201.23977,371.66371 209.73342,401.23161 227.57669,424.64543 C 236.54589,442.31065 252.1042,455.92776 266.61667,469.08532 C 299.6089,492.75956 339.98674,506.63421 380.91074,504.56697 C 388.13602,504.43342 395.4163,504.2316 402.53476,502.87604 z M 361.88107,483.36533 C 326.9255,478.86681 292.06811,466.06618 267.90761,439.60238 C 255.96293,427.84454 245.02356,413.72245 237.45678,398.54108 C 230.73321,382.6989 224.49122,366.03532 222.43963,348.41944 C 215.90291,300.37144 232.61629,249.32712 268.58255,216.32518 C 298.28936,185.75083 341.90812,170.53628 384.22231,173.72383 C 417.89618,175.85716 451.37338,189.8829 475.1168,213.38449 C 485.34287,222.09321 495.75842,233.16223 502.78751,245.01383 C 515.39628,265.2221 523.71334,288.57935 526.23127,312.52703 C 527.72427,341.3637 524.84498,371.88511 511.43525,397.1717 C 489.20282,443.62305 442.59536,478.10239 390.83244,482.4255 C 381.30577,483.11321 371.33069,485.51477 361.88107,483.36533 z M 393.53476,470.38416 C 432.44676,465.98626 467.51224,443.09274 490.3848,411.85238 C 507.66823,387.01849 517.66583,356.84531 516.79995,326.30822 C 516.50905,282.87486 494.49115,238.90155 458.13634,214.1573 C 426.20502,187.49863 380.52766,179.42618 340.23306,188.94553 C 296.06036,200.08205 256.2568,233.74018 240.74102,277.4238 C 235.43572,288.45264 233.50596,301.54009 231.70952,314.26151 C 230.54202,329.29821 231.11799,345.50505 234.96143,359.43603 C 238.68155,379.4963 247.75018,398.15186 259.92377,414.51351 C 279.33089,438.89406 304.96185,458.86831 335.51383,466.57114 C 354.24136,472.26037 374.17135,472.74961 393.53476,470.38416 z M 360.66556,464.14011 C 349.79809,442.06476 393.16194,457.67847 370.30761,465.10403 C 367.06755,465.39257 363.80336,464.93432 360.66556,464.14011 z M 385.66156,463.3222 C 377.0176,442.01097 419.14753,454.76894 395.53477,463.25495 C 392.64206,462.75092 387.84029,466.48749 385.66156,463.3222 z M 346.53476,461.85239 C 326.87724,466.28049 334.46101,438.33363 349.47118,450.81842 C 353.51787,453.22462 354.22211,465.80731 346.53476,461.85239 z M 410.64417,457.37897 C 403.93997,434.68164 442.7348,447.95201 419.14249,457.89367 C 416.30949,457.33318 412.4515,461.36465 410.64417,457.37897 z M 321.65002,454.03885 C 300.4063,453.29696 317.23089,428.20651 326.71157,444.83929 C 329.67454,448.76148 327.74963,457.71139 321.65002,454.03885 z M 434.78476,448.46033 C 421.17631,432.09041 462.90188,428.35479 445.01291,444.04226 C 442.19057,445.26982 437.73619,452.17859 434.78476,448.46033 z M 366.53476,444.70718 C 327.99826,442.10553 291.43901,418.54554 273.60659,384.47646 C 260.36706,361.98112 257.57284,333.92653 260.70731,308.08097 C 265.48528,281.44318 279.16864,256.73355 299.95826,239.28768 C 328.9037,214.44741 370.85948,205.55833 407.28477,217.41317 C 446.00048,229.33481 477.8169,262.70969 485.82373,302.88363 C 495.2394,344.43622 480.92724,391.58459 447.18882,418.50926 C 425.41303,437.59756 395.11844,445.80945 366.53476,444.70718 z M 400.66296,429.77936 C 438.74176,421.1376 469.15934,387.43065 477.03477,349.7114 C 485.64512,308.59211 466.49004,261.83292 430.03477,239.92086 C 406.07386,224.13047 375.85181,221.62552 348.10528,226.37033 C 326.00152,233.09938 304.56657,244.35748 291.37486,264.13238 C 265.79418,294.51453 263.07065,339.71229 279.04797,374.96113 C 294.97597,402.15481 320.33229,425.09351 352.1186,430.87405 C 368.01859,435.08037 384.72039,432.57262 400.66296,429.77936 z M 358.53476,423.29208 C 327.2572,418.66205 300.52881,395.88301 287.59415,366.15513 C 280.45166,352.15608 278.7017,334.7352 280.10977,318.922 C 281.46218,284.90615 304.64052,254.41442 335.03477,240.30187 C 356.46488,230.30091 382.60508,230.36618 404.92872,237.83862 C 429.15642,244.22287 448.59346,264.33792 459.03477,286.94638 C 470.16515,305.63734 470.53676,330.48622 465.95933,351.81165 C 457.01877,391.47711 420.45231,424.60487 378.88277,424.04088 C 372.10188,424.33706 365.254,424.38191 358.53476,423.29208 z M 376.66266,408.25653 C 403.33397,396.61753 366.5685,365.679 357.42545,391.71238 C 353.59189,402.57369 366.98929,412.97709 376.66266,408.25653 z M 326.15948,389.23087 C 353.54718,382.40171 322.25888,344.27374 309.25603,369.81078 C 303.45594,381.1172 314.4886,392.33283 326.15948,389.23087 z M 427.08209,388.10239 C 446.43341,377.44247 427.51641,352.36674 411.198,364.81668 C 397.99463,375.94872 412.31554,395.54607 427.08209,388.10239 z M 385.52151,355.85858 C 408.41862,346.99034 407.74046,310.74476 384.96617,302.12856 C 365.36942,292.48617 339.46885,307.3709 339.83554,329.62934 C 338.37697,351.98337 363.93304,362.47009 382.71473,356.93418 L 385.52152,355.85857 L 385.52151,355.85858 z M 371.03476,351.6008 C 392.68935,338.79091 369.95219,305.75166 349.42013,319.70074 C 354.20325,296.82582 390.32639,298.89043 394.69479,321.62861 C 401.11384,336.1371 385.35043,355.91066 371.03476,351.6008 z M 449.04495,341.60239 C 472.50102,325.35563 432.42012,300.43627 426.50009,329.02235 C 425.80946,338.37546 438.5407,348.41392 449.04495,341.60239 z M 311.31689,338.48126 C 331.49825,331.05682 313.25195,301.99327 297.4814,314.66007 C 281.94473,324.17373 295.89987,345.61741 311.31689,338.48126 z M 430.3183,293.76904 C 453.32554,280.17178 419.52904,252.98895 409.79152,276.3958 C 404.72782,288.24096 419.80814,299.21392 430.3183,293.76904 z M 336.9761,288.28641 C 357.4566,271.00362 318.8013,250.86763 313.27549,275.41607 C 310.14217,287.94902 328.11437,297.21768 336.9761,288.28641 z M 381.07001,275.85239 C 401.6191,269.64904 389.76735,240.19742 370.83956,249.08059 C 354.97723,257.3795 365.6162,279.45243 381.07001,275.85239 z M 299.28882,440.77969 C 279.33024,438.70137 296.54261,413.13536 304.78073,432.29244 C 306.84821,436.10781 305.61155,445.65612 299.28882,440.77969 z M 454.22559,431.26376 C 445.13614,415.68009 482.60628,412.94286 464.67029,429.50162 C 461.42279,431.4595 456.60559,438.32096 454.22559,431.26376 z M 278.60312,423.35159 C 260.93509,416.31979 279.72858,396.64945 286.80526,417.32151 C 287.07741,422.34756 283.81888,431.13869 278.60312,423.35159 z M 472.08926,413.75092 C 460.60667,397.33315 498.7282,393.50487 481.74959,410.14275 C 479.61368,413.31662 475.79914,419.50277 472.08926,413.75092 z M 260.53476,401.30899 C 243.91241,375.03964 285.75747,397.61769 265.15708,406.41773 L 263.09424,404.50638 L 260.53477,401.30899 L 260.53476,401.30899 z M 486.64749,392.8172 C 472.62583,380.2549 507.0826,365.66017 495.47359,387.74233 C 495.48464,393.08801 491.5516,397.16548 486.64749,392.8172 z M 250.00127,380.10239 C 239.10335,368.54723 255.52859,355.64347 259.28668,373.42596 C 262.84381,378.65676 251.66923,391.21854 250.00127,380.10239 z M 496.05453,369.56796 C 483.19435,353.39773 514.63008,343.85367 503.68444,366.93524 C 503.40276,370.66368 498.54812,371.73779 496.05453,369.56796 z M 243.54776,358.87338 C 237.46621,350.14931 242.06754,328.13641 251.32583,345.86093 C 254.91145,351.05694 250.48316,362.4387 243.54776,358.87338 z M 502.23401,345.81375 C 485.1527,339.63187 511.39219,311.30715 508.67227,335.89724 C 508.58773,339.6272 507.47364,346.61101 502.23401,345.81375 z M 240.1274,333.46399 C 240.58687,326.15537 235.54934,307.41016 249.51221,316.35364 C 252.63411,322.71992 250.2381,337.80771 240.1274,333.46399 z M 498.32394,318.65189 C 486.98639,305.49949 508.91006,289.8821 507.7279,311.61973 C 508.06908,316.11012 502.97283,324.59998 498.32394,318.65189 z M 242.52588,306.83798 C 236.15158,292.89806 255.27509,280.91981 253.92778,297.85238 C 254.44279,302.77019 248.12051,311.60776 242.52588,306.83798 z M 492.89935,293.71698 C 482.67359,285.29699 497.92468,264.5898 500.85233,284.26774 C 505.51119,289.71468 499.36469,300.6141 492.89935,293.71698 z M 249.70145,283.1857 C 245.22984,271.7687 262.98009,253.94664 262.63289,274.50167 C 261.06676,280.14296 256.43345,287.07339 249.70145,283.1857 z M 484.686,270.9978 C 477.58309,267.08436 474.64284,251.90209 484.61233,252.41629 C 489.33924,257.65295 501.87565,274.4158 484.686,270.9978 z M 263.03476,260.52914 C 252.43895,248.90875 282.03623,234.5518 274.92604,253.85238 C 272.53288,257.8995 268.61933,264.35156 263.03476,260.52914 z M 466.56552,246.88387 C 455.59692,233.74095 472.24158,227.06367 477.84102,242.07816 C 486.01735,250.72998 470.36612,252.34773 466.56552,246.88387 z M 279.71063,240.59262 C 269.47312,226.79302 302.83219,217.97678 290.06595,237.06862 C 287.1324,239.3972 283.78878,244.30614 279.71063,240.59262 z M 448.1181,229.88893 C 429.87283,206.8968 476.82661,223.97998 454.61186,233.67635 C 451.86514,233.96363 450.07956,231.18041 448.1181,229.88893 z M 300.34308,225.83347 C 282.97541,214.4318 324.51165,202.1326 310.90988,221.85238 C 307.6532,223.93093 304.74628,227.89657 300.34308,225.83347 z M 428.79977,218.13594 C 409.54948,205.07417 434.35971,199.88101 439.99803,212.53117 C 440.43819,218.61198 433.51867,221.85658 428.79977,218.13594 z M 320.42749,212.5851 C 309.43519,197.89138 348.88809,193.99839 333.11891,211.85238 C 329.00529,213.42823 324.29476,216.9676 320.42749,212.5851 z M 406.0506,209.83914 C 383.27261,200.56495 415.22196,186.52928 415.96245,204.63152 C 414.41957,209.00011 410.77269,212.00807 406.0506,209.83914 z M 345.84247,205.68063 C 329.38541,189.70878 378.24859,190.07414 355.70491,206.14803 C 352.45941,206.2775 348.4613,209.20776 345.84247,205.68063 z M 374.39432,202.69717 C 365.71169,184.83605 406.22473,193.19513 385.81023,204.75165 C 381.98818,204.79057 377.72603,204.94768 374.39432,202.69717 z"
         id="path2398"
         style="fill:#141405" />
    </g>
  </g>
</svg>
